<mxfile host="app.diagrams.net" modified="2022-04-03T13:52:05.814Z" agent="5.0 (Macintosh; Intel Mac OS X 10_15_7) AppleWebKit/537.36 (KHTML, like Gecko) Chrome/99.0.4844.84 Safari/537.36" etag="X7KbgRGGaqwc6KuKqnqJ" version="17.2.4" type="github">
  <diagram id="3228e29e-7158-1315-38df-8450db1d8a1d" name="Page-1">
    <mxGraphModel dx="1298" dy="102" grid="0" gridSize="10" guides="1" tooltips="1" connect="1" arrows="1" fold="1" page="1" pageScale="1" pageWidth="700" pageHeight="150" background="#EFF1F3" math="0" shadow="0">
      <root>
        <mxCell id="0" />
        <mxCell id="1" parent="0" />
        <mxCell id="pTquKtreFx32UbCazG2L-13" style="edgeStyle=orthogonalEdgeStyle;rounded=0;orthogonalLoop=1;jettySize=auto;html=1;exitX=1;exitY=0.5;exitDx=0;exitDy=0;fontSize=24;strokeColor=#FDD276;strokeWidth=2;" parent="1" source="pTquKtreFx32UbCazG2L-1" target="pTquKtreFx32UbCazG2L-2" edge="1">
          <mxGeometry relative="1" as="geometry" />
        </mxCell>
        <mxCell id="pTquKtreFx32UbCazG2L-1" value="&lt;font&gt;1&lt;/font&gt;" style="rounded=1;whiteSpace=wrap;html=1;fillColor=#9AC7BF;strokeColor=none;fontColor=#000000;" parent="1" vertex="1">
          <mxGeometry x="67.99999999999999" y="693" width="20.38" height="22" as="geometry" />
        </mxCell>
        <mxCell id="pTquKtreFx32UbCazG2L-14" style="edgeStyle=orthogonalEdgeStyle;rounded=0;orthogonalLoop=1;jettySize=auto;html=1;exitX=1;exitY=0.5;exitDx=0;exitDy=0;entryX=0;entryY=0.5;entryDx=0;entryDy=0;fontSize=24;strokeColor=#FDD276;strokeWidth=2;" parent="1" source="pTquKtreFx32UbCazG2L-2" target="pTquKtreFx32UbCazG2L-3" edge="1">
          <mxGeometry relative="1" as="geometry" />
        </mxCell>
        <mxCell id="pTquKtreFx32UbCazG2L-2" value="&lt;font&gt;2&lt;/font&gt;" style="rounded=1;whiteSpace=wrap;html=1;fillColor=#9AC7BF;strokeColor=none;fontColor=#000000;" parent="1" vertex="1">
          <mxGeometry x="116.88000000000001" y="693" width="20.38" height="22" as="geometry" />
        </mxCell>
        <mxCell id="pTquKtreFx32UbCazG2L-15" style="edgeStyle=orthogonalEdgeStyle;rounded=0;orthogonalLoop=1;jettySize=auto;html=1;exitX=1;exitY=0.5;exitDx=0;exitDy=0;entryX=0;entryY=0.5;entryDx=0;entryDy=0;fontSize=24;strokeColor=#FDD276;strokeWidth=2;" parent="1" source="pTquKtreFx32UbCazG2L-3" target="pTquKtreFx32UbCazG2L-4" edge="1">
          <mxGeometry relative="1" as="geometry" />
        </mxCell>
        <mxCell id="pTquKtreFx32UbCazG2L-3" value="&lt;font&gt;3&lt;/font&gt;" style="rounded=1;whiteSpace=wrap;html=1;fillColor=#9AC7BF;strokeColor=none;fontColor=#000000;" parent="1" vertex="1">
          <mxGeometry x="166.14" y="693" width="20.38" height="22" as="geometry" />
        </mxCell>
        <mxCell id="pTquKtreFx32UbCazG2L-16" style="edgeStyle=orthogonalEdgeStyle;rounded=0;orthogonalLoop=1;jettySize=auto;html=1;exitX=1;exitY=0.5;exitDx=0;exitDy=0;entryX=0;entryY=0.5;entryDx=0;entryDy=0;fontSize=24;strokeColor=#FDD276;strokeWidth=2;" parent="1" source="pTquKtreFx32UbCazG2L-4" target="pTquKtreFx32UbCazG2L-5" edge="1">
          <mxGeometry relative="1" as="geometry" />
        </mxCell>
        <mxCell id="pTquKtreFx32UbCazG2L-4" value="&lt;font&gt;4&lt;/font&gt;" style="rounded=1;whiteSpace=wrap;html=1;fillColor=#9AC7BF;strokeColor=none;fontColor=#000000;" parent="1" vertex="1">
          <mxGeometry x="215.01999999999998" y="693" width="20.38" height="22" as="geometry" />
        </mxCell>
        <mxCell id="pTquKtreFx32UbCazG2L-17" style="edgeStyle=orthogonalEdgeStyle;rounded=0;orthogonalLoop=1;jettySize=auto;html=1;exitX=1;exitY=0.5;exitDx=0;exitDy=0;entryX=0;entryY=0.5;entryDx=0;entryDy=0;fontSize=24;strokeColor=#FDD276;strokeWidth=2;" parent="1" source="pTquKtreFx32UbCazG2L-5" target="pTquKtreFx32UbCazG2L-6" edge="1">
          <mxGeometry relative="1" as="geometry" />
        </mxCell>
        <mxCell id="pTquKtreFx32UbCazG2L-5" value="&lt;font&gt;5&lt;/font&gt;" style="rounded=1;whiteSpace=wrap;html=1;fillColor=#9AC7BF;strokeColor=none;fontColor=#000000;" parent="1" vertex="1">
          <mxGeometry x="264.27" y="693" width="20.38" height="22" as="geometry" />
        </mxCell>
        <mxCell id="pTquKtreFx32UbCazG2L-29" style="edgeStyle=orthogonalEdgeStyle;rounded=0;orthogonalLoop=1;jettySize=auto;html=1;exitX=1;exitY=0.5;exitDx=0;exitDy=0;fontSize=24;strokeColor=#F19C99;strokeWidth=2;" parent="1" source="pTquKtreFx32UbCazG2L-6" target="pTquKtreFx32UbCazG2L-19" edge="1">
          <mxGeometry relative="1" as="geometry" />
        </mxCell>
        <mxCell id="pTquKtreFx32UbCazG2L-6" value="&lt;font&gt;6&lt;/font&gt;" style="rounded=1;whiteSpace=wrap;html=1;fillColor=#9AC7BF;strokeColor=none;fontColor=#000000;" parent="1" vertex="1">
          <mxGeometry x="314.27" y="693" width="20.38" height="22" as="geometry" />
        </mxCell>
        <mxCell id="pTquKtreFx32UbCazG2L-18" style="edgeStyle=orthogonalEdgeStyle;rounded=0;orthogonalLoop=1;jettySize=auto;html=1;exitX=1;exitY=0.5;exitDx=0;exitDy=0;fontSize=24;strokeColor=#F19C99;strokeWidth=2;" parent="1" source="pTquKtreFx32UbCazG2L-19" target="pTquKtreFx32UbCazG2L-21" edge="1">
          <mxGeometry relative="1" as="geometry" />
        </mxCell>
        <mxCell id="pTquKtreFx32UbCazG2L-19" value="&lt;font&gt;7&lt;/font&gt;" style="rounded=1;whiteSpace=wrap;html=1;fillColor=#9AC7BF;strokeColor=none;fontColor=#000000;" parent="1" vertex="1">
          <mxGeometry x="366" y="693" width="20.38" height="22" as="geometry" />
        </mxCell>
        <mxCell id="pTquKtreFx32UbCazG2L-20" style="edgeStyle=orthogonalEdgeStyle;rounded=0;orthogonalLoop=1;jettySize=auto;html=1;exitX=1;exitY=0.5;exitDx=0;exitDy=0;entryX=0;entryY=0.5;entryDx=0;entryDy=0;fontSize=24;strokeColor=#F19C99;strokeWidth=2;" parent="1" source="pTquKtreFx32UbCazG2L-21" target="pTquKtreFx32UbCazG2L-23" edge="1">
          <mxGeometry relative="1" as="geometry" />
        </mxCell>
        <mxCell id="pTquKtreFx32UbCazG2L-21" value="&lt;font&gt;8&lt;/font&gt;" style="rounded=1;whiteSpace=wrap;html=1;fillColor=#9AC7BF;strokeColor=none;fontColor=#000000;" parent="1" vertex="1">
          <mxGeometry x="414.88" y="693" width="20.38" height="22" as="geometry" />
        </mxCell>
        <mxCell id="pTquKtreFx32UbCazG2L-22" style="edgeStyle=orthogonalEdgeStyle;rounded=0;orthogonalLoop=1;jettySize=auto;html=1;exitX=1;exitY=0.5;exitDx=0;exitDy=0;entryX=0;entryY=0.5;entryDx=0;entryDy=0;fontSize=24;strokeColor=#F19C99;strokeWidth=2;" parent="1" source="pTquKtreFx32UbCazG2L-23" target="pTquKtreFx32UbCazG2L-25" edge="1">
          <mxGeometry relative="1" as="geometry" />
        </mxCell>
        <mxCell id="pTquKtreFx32UbCazG2L-23" value="&lt;font&gt;9&lt;/font&gt;" style="rounded=1;whiteSpace=wrap;html=1;fillColor=#9AC7BF;strokeColor=none;fontColor=#000000;" parent="1" vertex="1">
          <mxGeometry x="464.14" y="693" width="20.38" height="22" as="geometry" />
        </mxCell>
        <mxCell id="pTquKtreFx32UbCazG2L-24" style="edgeStyle=orthogonalEdgeStyle;rounded=0;orthogonalLoop=1;jettySize=auto;html=1;exitX=1;exitY=0.5;exitDx=0;exitDy=0;entryX=0;entryY=0.5;entryDx=0;entryDy=0;fontSize=24;strokeColor=#FDD276;strokeWidth=2;" parent="1" source="pTquKtreFx32UbCazG2L-25" target="pTquKtreFx32UbCazG2L-27" edge="1">
          <mxGeometry relative="1" as="geometry" />
        </mxCell>
        <mxCell id="pTquKtreFx32UbCazG2L-25" value="10" style="rounded=1;whiteSpace=wrap;html=1;fillColor=#F19C99;strokeColor=none;fontColor=#000000;" parent="1" vertex="1">
          <mxGeometry x="513.02" y="693" width="20.38" height="22" as="geometry" />
        </mxCell>
        <mxCell id="pTquKtreFx32UbCazG2L-26" style="edgeStyle=orthogonalEdgeStyle;rounded=0;orthogonalLoop=1;jettySize=auto;html=1;exitX=1;exitY=0.5;exitDx=0;exitDy=0;fontSize=24;strokeColor=#FDD276;strokeWidth=2;" parent="1" source="pTquKtreFx32UbCazG2L-27" target="pTquKtreFx32UbCazG2L-28" edge="1">
          <mxGeometry relative="1" as="geometry" />
        </mxCell>
        <mxCell id="pTquKtreFx32UbCazG2L-27" value="&lt;font&gt;11&lt;/font&gt;" style="rounded=1;whiteSpace=wrap;html=1;fillColor=#9AC7BF;strokeColor=none;fontColor=#000000;" parent="1" vertex="1">
          <mxGeometry x="562.2700000000001" y="693" width="20.38" height="22" as="geometry" />
        </mxCell>
        <mxCell id="pTquKtreFx32UbCazG2L-28" value="&lt;font&gt;12&lt;/font&gt;" style="rounded=1;whiteSpace=wrap;html=1;fillColor=#9AC7BF;strokeColor=none;fontColor=#000000;" parent="1" vertex="1">
          <mxGeometry x="612.2700000000001" y="693" width="20.38" height="22" as="geometry" />
        </mxCell>
        <mxCell id="1T4NAsHrSFZo_rarIsao-4" style="edgeStyle=orthogonalEdgeStyle;rounded=0;orthogonalLoop=1;jettySize=auto;html=1;exitX=0.5;exitY=1;exitDx=0;exitDy=0;strokeColor=#FDD276;strokeWidth=2;" parent="1" source="1T4NAsHrSFZo_rarIsao-1" target="pTquKtreFx32UbCazG2L-1" edge="1">
          <mxGeometry relative="1" as="geometry" />
        </mxCell>
        <mxCell id="1T4NAsHrSFZo_rarIsao-7" style="edgeStyle=orthogonalEdgeStyle;rounded=0;orthogonalLoop=1;jettySize=auto;html=1;exitX=1;exitY=0.5;exitDx=0;exitDy=0;entryX=0;entryY=0.5;entryDx=0;entryDy=0;strokeColor=#F19C99;strokeWidth=2;" parent="1" source="1T4NAsHrSFZo_rarIsao-1" target="1T4NAsHrSFZo_rarIsao-2" edge="1">
          <mxGeometry relative="1" as="geometry" />
        </mxCell>
        <mxCell id="1T4NAsHrSFZo_rarIsao-1" value="&lt;font&gt;1&lt;/font&gt;" style="rounded=1;whiteSpace=wrap;html=1;fillColor=#9AC7BF;strokeColor=none;fontColor=#000000;" parent="1" vertex="1">
          <mxGeometry x="67.99999999999999" y="636" width="20.38" height="22" as="geometry" />
        </mxCell>
        <mxCell id="1T4NAsHrSFZo_rarIsao-5" style="edgeStyle=orthogonalEdgeStyle;rounded=0;orthogonalLoop=1;jettySize=auto;html=1;exitX=0.5;exitY=1;exitDx=0;exitDy=0;strokeColor=#F19C99;strokeWidth=2;" parent="1" source="1T4NAsHrSFZo_rarIsao-2" target="pTquKtreFx32UbCazG2L-6" edge="1">
          <mxGeometry relative="1" as="geometry" />
        </mxCell>
        <mxCell id="1T4NAsHrSFZo_rarIsao-8" style="edgeStyle=orthogonalEdgeStyle;rounded=0;orthogonalLoop=1;jettySize=auto;html=1;exitX=1;exitY=0.5;exitDx=0;exitDy=0;strokeColor=#FDD276;strokeWidth=2;" parent="1" source="1T4NAsHrSFZo_rarIsao-2" target="1T4NAsHrSFZo_rarIsao-3" edge="1">
          <mxGeometry relative="1" as="geometry" />
        </mxCell>
        <mxCell id="1T4NAsHrSFZo_rarIsao-2" value="&lt;font&gt;6&lt;/font&gt;" style="rounded=1;whiteSpace=wrap;html=1;fillColor=#9AC7BF;strokeColor=none;fontColor=#000000;" parent="1" vertex="1">
          <mxGeometry x="314.27" y="636" width="20.38" height="22" as="geometry" />
        </mxCell>
        <mxCell id="1T4NAsHrSFZo_rarIsao-6" style="edgeStyle=orthogonalEdgeStyle;rounded=0;orthogonalLoop=1;jettySize=auto;html=1;exitX=0.5;exitY=1;exitDx=0;exitDy=0;strokeColor=#FDD276;strokeWidth=2;" parent="1" source="1T4NAsHrSFZo_rarIsao-3" target="pTquKtreFx32UbCazG2L-28" edge="1">
          <mxGeometry relative="1" as="geometry" />
        </mxCell>
        <mxCell id="1T4NAsHrSFZo_rarIsao-3" value="&lt;font&gt;12&lt;/font&gt;" style="rounded=1;whiteSpace=wrap;html=1;fillColor=#9AC7BF;strokeColor=none;fontColor=#000000;" parent="1" vertex="1">
          <mxGeometry x="612.2700000000001" y="636" width="20.38" height="22" as="geometry" />
        </mxCell>
      </root>
    </mxGraphModel>
  </diagram>
</mxfile>
